<svg width="120" height="121" viewBox="0 0 120 121" fill="none" xmlns="http://www.w3.org/2000/svg">
<g clip-path="url(#clip0_2_508)">
<rect y="0.111938" width="120" height="120" rx="60" fill="#ED7D4D"/>
<path d="M69.7196 28.2584C71.9238 28.0173 73.9338 27.9836 76.0154 28.871C76.1643 28.9341 76.3116 29.001 76.4571 29.0718C76.6028 29.1426 76.7467 29.2169 76.8886 29.2948C77.0304 29.373 77.1702 29.4546 77.308 29.5397C77.446 29.625 77.5817 29.7138 77.7151 29.806C77.8485 29.898 77.9796 29.9934 78.1084 30.0923C78.2371 30.1912 78.3634 30.2933 78.4871 30.3986C78.6108 30.5041 78.7318 30.6126 78.8501 30.7241C78.9685 30.8355 79.0841 30.9499 79.1968 31.0673C79.3094 31.1849 79.419 31.3053 79.5257 31.4283C79.6324 31.5514 79.736 31.677 79.8364 31.8052C79.937 31.9337 80.0343 32.0645 80.1282 32.1977C80.2223 32.3311 80.313 32.4667 80.4003 32.6046C80.4876 32.7427 80.5714 32.8828 80.6517 33.0251C80.7322 33.1674 80.8091 33.3115 80.8823 33.4575C80.9556 33.6037 81.025 33.7518 81.0908 33.9017C81.1567 34.0514 81.2189 34.2027 81.2774 34.3556C82.2153 36.8301 82.1683 39.7518 81.0715 42.1668C79.7589 45.0571 77.5336 46.5825 74.6938 47.6829C72.6725 47.9547 70.8411 48.0154 68.897 47.2845C68.7454 47.2263 68.5953 47.1643 68.4466 47.0985C68.2982 47.0326 68.1513 46.9631 68.0061 46.8898C67.8608 46.8164 67.7175 46.7394 67.5761 46.659C67.4347 46.5784 67.2953 46.4943 67.1581 46.4068C67.0208 46.3192 66.8857 46.2282 66.7528 46.1338C66.6199 46.0394 66.4894 45.9416 66.3613 45.8405C66.2333 45.7394 66.1078 45.6352 65.9848 45.5279C65.8618 45.4204 65.7417 45.3099 65.6243 45.1965C65.5067 45.0831 65.3919 44.9667 65.2801 44.8473C65.1683 44.728 65.0594 44.6059 64.9534 44.4812C64.8477 44.3564 64.745 44.229 64.6453 44.0991C64.5456 43.9689 64.4492 43.8363 64.3561 43.7014C64.2629 43.5666 64.1732 43.4295 64.0869 43.2901C64.0003 43.1506 63.9173 43.009 63.838 42.8655C63.7585 42.7217 63.6826 42.5761 63.6103 42.4287C63.5378 42.2812 63.469 42.132 63.404 41.9811C63.3371 41.8272 63.274 41.6719 63.2149 41.5151C63.1557 41.358 63.1005 41.1995 63.0493 41.0398C62.9979 40.88 62.9506 40.7189 62.9074 40.5567C62.864 40.3944 62.8247 40.2312 62.7896 40.067C62.7542 39.9025 62.723 39.7374 62.6961 39.5717C62.6689 39.4057 62.6459 39.2393 62.627 39.0723C62.6083 38.9052 62.5936 38.7377 62.5829 38.57C62.5725 38.4021 62.5661 38.2342 62.5636 38.0663C62.5615 37.8981 62.5635 37.7299 62.5698 37.5617C62.5759 37.3938 62.5861 37.2261 62.6004 37.0587C62.6149 36.8913 62.6335 36.7242 62.6561 36.5575C62.6789 36.3911 62.7057 36.2252 62.7365 36.06C62.7673 35.8948 62.8022 35.7306 62.8412 35.5673C62.8803 35.4038 62.9234 35.2415 62.9707 35.0802C63.0178 34.9192 63.0687 34.7594 63.1235 34.6008C63.1786 34.4423 63.2375 34.2852 63.3003 34.1296C64.5118 31.1853 66.8863 29.4158 69.7196 28.2584Z" fill="white"/>
<path d="M44.0346 72.3614C46.3873 72.0673 48.5839 72.2223 50.711 73.3811C50.8483 73.4563 50.9836 73.535 51.117 73.6171C51.2504 73.699 51.3818 73.7843 51.511 73.8731C51.6403 73.9616 51.7673 74.0535 51.8919 74.1486C52.0166 74.2436 52.1389 74.3416 52.259 74.4427C52.379 74.5441 52.4966 74.6482 52.6115 74.7553C52.7262 74.8623 52.8384 74.9722 52.948 75.0852C53.0577 75.1979 53.1644 75.3133 53.2682 75.4314C53.3722 75.5495 53.4732 75.6702 53.5712 75.7935C53.6692 75.9168 53.7642 76.0424 53.8561 76.1704C53.948 76.2984 54.0368 76.4286 54.1224 76.561C54.208 76.6937 54.2903 76.8283 54.3694 76.9649C54.4485 77.1015 54.5241 77.24 54.5964 77.3803C54.6687 77.5209 54.7374 77.663 54.8027 77.8068C54.8682 77.9508 54.93 78.0963 54.9882 78.2433C55.0464 78.3902 55.1011 78.5387 55.1523 78.6886C55.2032 78.8383 55.2505 78.9892 55.2942 79.1413C55.3419 79.3026 55.3857 79.465 55.4255 79.6285C55.4653 79.792 55.501 79.9563 55.5328 80.1215C55.5648 80.2867 55.5926 80.4527 55.6161 80.6194C55.6399 80.7861 55.6595 80.9533 55.6751 81.121C55.6908 81.2886 55.7023 81.4566 55.7096 81.6247C55.7171 81.7929 55.7204 81.9612 55.7194 82.1296C55.7187 82.2981 55.7139 82.4663 55.7049 82.6345C55.6959 82.8027 55.6828 82.9705 55.6656 83.1379C55.6484 83.3053 55.627 83.4723 55.6016 83.6387C55.5764 83.8052 55.547 83.9709 55.5135 84.1359C55.4801 84.3008 55.4426 84.4648 55.4011 84.6278C55.3599 84.7908 55.3145 84.9527 55.2651 85.1135C55.2158 85.2742 55.1627 85.4337 55.1057 85.5917C55.0485 85.7498 54.9876 85.9064 54.9231 86.0615C54.8583 86.2166 54.7898 86.3698 54.7175 86.5213C54.6455 86.6729 54.5697 86.8226 54.4902 86.9703C53.0779 89.5628 50.7332 91.0608 47.9975 91.8853C45.6768 92.0991 43.717 92.0088 41.6121 90.8973C41.4654 90.8199 41.3206 90.7389 41.1777 90.6543C41.0351 90.5695 40.8946 90.4811 40.7561 90.3891C40.6178 90.2974 40.4818 90.2021 40.3479 90.1032C40.2143 90.0046 40.083 89.9025 39.9543 89.797C39.8257 89.6914 39.6997 89.5828 39.5763 89.4711C39.4531 89.3591 39.3327 89.2441 39.215 89.126C39.0972 89.0081 38.9824 88.8873 38.8709 88.7635C38.7591 88.6397 38.6504 88.5131 38.5449 88.3836C38.4394 88.2541 38.3372 88.1222 38.2382 87.9878C38.139 87.8532 38.0434 87.7162 37.9512 87.5769C37.8588 87.4373 37.77 87.2957 37.6849 87.1519C37.5995 87.0079 37.5178 86.8618 37.4397 86.7136C37.3616 86.5656 37.2871 86.4157 37.2163 86.2638C37.1455 86.1119 37.0785 85.9583 37.0152 85.8029C36.9521 85.6476 36.8928 85.4909 36.8372 85.3328C36.7817 85.1745 36.7302 85.0148 36.6826 84.8538C36.6363 84.6967 36.5939 84.5387 36.5553 84.3796C36.5167 84.2203 36.4821 84.0602 36.4513 83.8992C36.4205 83.7384 36.3935 83.5769 36.3705 83.4146C36.3477 83.2524 36.3287 83.0896 36.3134 82.9264C36.2983 82.7631 36.2872 82.5996 36.2799 82.4359C36.2729 82.2719 36.2697 82.108 36.2705 81.9443C36.2712 81.7803 36.2759 81.6165 36.2846 81.4527C36.2934 81.289 36.306 81.1256 36.3225 80.9626C36.3392 80.7996 36.3598 80.637 36.3843 80.4748C36.4088 80.3128 36.4372 80.1515 36.4695 79.9909C36.5017 79.8304 36.5378 79.6708 36.5779 79.512C36.6179 79.3532 36.6618 79.1955 36.7096 79.0389C36.7571 78.882 36.8085 78.7267 36.8638 78.5728C36.9191 78.4187 36.978 78.2661 37.0406 78.1149C37.1032 77.964 37.1694 77.8147 37.2392 77.667C37.3091 77.519 37.3825 77.373 37.4593 77.229C38.9462 74.4993 41.1912 73.2287 44.0346 72.3614Z" fill="white"/>
<path d="M55.615 28.3322C56.2328 28.2375 56.6693 28.2224 57.2827 28.3529C57.0564 29.3897 54.1526 31.4026 53.35 32.5108C52.0819 34.2618 51.6213 36.3121 51.9705 38.4556C53.4716 47.6683 69.4317 53.6134 76.3712 58.5935C80.5861 61.6188 84.4031 65.4892 85.2715 70.8836C85.9161 74.885 85.3064 78.9785 82.8948 82.2749C77.8391 89.1862 70.2917 90.921 62.4355 92.0965C62.1045 92.1468 61.7061 92.061 61.3707 92.0292L62.1085 92.055L61.458 91.9356C61.7301 91.818 61.9913 91.6815 62.2547 91.5446C65.6322 89.7902 67.708 88.4183 68.9177 84.6274C66.6017 74.0428 51.4834 68.8104 43.7734 62.576C39.0299 58.7404 35.2686 54.099 34.605 47.7419C34.1779 43.6528 34.8768 39.0422 37.5267 35.7991C41.9053 30.4402 49.13 28.8933 55.615 28.3322Z" fill="white"/>
</g>
<defs>
<clipPath id="clip0_2_508">
<rect width="120" height="120" fill="white" transform="translate(0 0.111938)"/>
</clipPath>
</defs>
</svg>
