<svg width="99" height="32" viewBox="0 0 99 32" fill="none" xmlns="http://www.w3.org/2000/svg">
<path d="M84.7772 24.9567C85.6474 24.899 86.5893 25.1778 87.2621 25.7462C87.9708 26.3455 88.3937 27.2477 88.4578 28.1782C88.4621 28.2376 88.4651 28.2971 88.4668 28.3566C88.4676 28.4161 88.4676 28.4756 88.4668 28.5351C88.4651 28.5947 88.4621 28.6541 88.4578 28.7135C88.4535 28.7729 88.4476 28.8321 88.4399 28.8912C88.433 28.9503 88.4245 29.0091 88.4142 29.0677C88.404 29.1265 88.3925 29.1848 88.3796 29.2429C88.3668 29.3009 88.3523 29.3586 88.3361 29.4159C88.3207 29.4732 88.3036 29.5301 88.2848 29.5866C88.266 29.6431 88.2459 29.699 88.2246 29.7546C88.2032 29.81 88.1806 29.8648 88.1567 29.9191C88.1327 29.9734 88.1071 30.027 88.0798 30.08C88.0533 30.1331 88.0255 30.1855 87.9965 30.237C87.9674 30.2886 87.9371 30.3395 87.9055 30.3895C87.8738 30.4395 87.841 30.4887 87.8068 30.5371C87.7726 30.5855 87.7372 30.633 87.7004 30.6797C87.6637 30.7262 87.6261 30.7719 87.5876 30.8166C86.9097 31.586 86.0754 31.9017 85.0822 31.9451C84.3991 31.93 83.7981 31.7622 83.2188 31.3813C83.171 31.3494 83.124 31.3162 83.0779 31.2818C83.0309 31.2473 82.9852 31.2117 82.9407 31.1751C82.8963 31.1383 82.8527 31.1005 82.81 31.0616C82.7673 31.0226 82.7254 30.9826 82.6844 30.9416C82.6434 30.9005 82.6037 30.8584 82.5652 30.8153C82.5259 30.7722 82.4884 30.7281 82.4525 30.6831C82.4157 30.6381 82.3803 30.5922 82.3461 30.5453C82.3119 30.4985 82.2786 30.4509 82.2461 30.4024C82.2145 30.3539 82.1838 30.3047 82.1539 30.2546C82.1248 30.2045 82.0966 30.1537 82.0693 30.1022C82.0419 30.0507 82.0163 29.9985 81.9924 29.9457C81.9676 29.893 81.9441 29.8396 81.9219 29.7856C81.9005 29.7315 81.8805 29.677 81.8617 29.622C81.842 29.567 81.8241 29.5115 81.8078 29.4555C81.7916 29.3996 81.7767 29.3433 81.763 29.2866C81.7493 29.2299 81.7369 29.1729 81.7258 29.1156C81.7147 29.0594 81.7049 29.0029 81.6963 28.9463C81.6878 28.8896 81.681 28.8327 81.6758 28.7757C81.6699 28.7188 81.6656 28.6616 81.663 28.6044C81.6605 28.5472 81.6592 28.4899 81.6592 28.4325C81.6592 28.3753 81.6605 28.318 81.663 28.2608C81.6656 28.2036 81.6699 28.1464 81.6758 28.0893C81.681 28.0323 81.6878 27.9755 81.6963 27.9188C81.704 27.8621 81.7134 27.8057 81.7245 27.7495C81.7356 27.6933 81.748 27.6374 81.7617 27.5818C81.7754 27.5262 81.7908 27.471 81.8078 27.4162C81.8241 27.3614 81.8416 27.3071 81.8604 27.2532C81.8792 27.1993 81.8997 27.1458 81.9219 27.0929C81.9433 27.04 81.9659 26.9877 81.9898 26.9359C82.0146 26.8841 82.0402 26.833 82.0667 26.7826C82.0932 26.7321 82.121 26.6823 82.15 26.6332C82.1791 26.5842 82.2094 26.5358 82.241 26.4882C82.8651 25.5454 83.7122 25.1644 84.7772 24.9567Z" fill="#405A51"/>
<path d="M12.4108 9.48715C13.1873 9.4022 13.8953 9.39034 14.6286 9.70293C14.6811 9.72516 14.7329 9.74875 14.7842 9.77368C14.8355 9.79861 14.8862 9.8248 14.9362 9.85225C14.9862 9.87979 15.0354 9.90854 15.0839 9.93851C15.1326 9.96856 15.1804 9.99983 15.2274 10.0323C15.2743 10.0647 15.3205 10.0983 15.3659 10.1332C15.4113 10.168 15.4557 10.204 15.4993 10.2411C15.5429 10.2782 15.5855 10.3165 15.6272 10.3557C15.6689 10.395 15.7096 10.4353 15.7493 10.4766C15.789 10.5181 15.8276 10.5605 15.8652 10.6038C15.9028 10.6472 15.9393 10.6914 15.9746 10.7366C16.0101 10.7818 16.0443 10.8279 16.0774 10.8748C16.1106 10.9218 16.1425 10.9696 16.1733 11.0182C16.204 11.0668 16.2335 11.1162 16.2618 11.1663C16.2902 11.2164 16.3173 11.2672 16.3431 11.3186C16.3689 11.3701 16.3933 11.4223 16.4165 11.4751C16.4397 11.5279 16.4617 11.5811 16.4822 11.635C16.8126 12.5067 16.7961 13.5359 16.4097 14.3867C15.9473 15.4048 15.1634 15.9422 14.163 16.3298C13.451 16.4256 12.8059 16.4469 12.121 16.1895C12.0676 16.169 12.0147 16.1471 11.9623 16.1239C11.9101 16.1007 11.8583 16.0762 11.8071 16.0504C11.756 16.0246 11.7055 15.9975 11.6557 15.9691C11.6059 15.9407 11.5568 15.9111 11.5084 15.8803C11.4601 15.8494 11.4125 15.8174 11.3657 15.7841C11.3188 15.7508 11.2729 15.7164 11.2278 15.6808C11.1826 15.6452 11.1384 15.6085 11.0951 15.5707C11.0518 15.5328 11.0095 15.4939 10.9681 15.4539C10.9267 15.414 10.8863 15.373 10.8469 15.3309C10.8075 15.2889 10.7691 15.2459 10.7318 15.2019C10.6945 15.158 10.6584 15.1131 10.6232 15.0673C10.5881 15.0215 10.5542 14.9748 10.5214 14.9273C10.4886 14.8798 10.4569 14.8315 10.4265 14.7824C10.396 14.7332 10.3668 14.6833 10.3389 14.6328C10.3108 14.5821 10.2841 14.5309 10.2586 14.4789C10.2331 14.427 10.2089 14.3744 10.186 14.3212C10.1624 14.267 10.1402 14.2123 10.1193 14.1571C10.0985 14.1017 10.0791 14.0459 10.061 13.9896C10.0429 13.9333 10.0263 13.8766 10.0111 13.8195C9.99576 13.7623 9.98192 13.7048 9.96953 13.6469C9.95706 13.589 9.94608 13.5309 9.93659 13.4725C9.92703 13.414 9.91891 13.3554 9.91224 13.2966C9.90567 13.2377 9.9005 13.1787 9.89674 13.1196C9.89307 13.0605 9.8908 13.0013 9.88994 12.9422C9.88918 12.8829 9.88991 12.8237 9.89213 12.7644C9.89426 12.7053 9.89785 12.6462 9.90289 12.5872C9.90802 12.5282 9.91455 12.4694 9.9225 12.4107C9.93053 12.352 9.93997 12.2936 9.95082 12.2354C9.96167 12.1772 9.97397 12.1194 9.98773 12.0619C10.0015 12.0043 10.0167 11.9471 10.0334 11.8903C10.0499 11.8335 10.0679 11.7772 10.0872 11.7214C10.1066 11.6655 10.1273 11.6102 10.1495 11.5554C10.5762 10.5182 11.4127 9.89486 12.4108 9.48715Z" fill="#405A51"/>
<path d="M93.2586 9.52069C94.2864 9.34309 95.2655 9.39039 96.1626 9.98013C96.2096 10.011 96.2561 10.043 96.3023 10.0762C96.3475 10.1093 96.3924 10.1435 96.4368 10.179C96.4804 10.2144 96.5235 10.2509 96.5663 10.2884C96.6081 10.326 96.6491 10.3647 96.6893 10.4044C96.7294 10.444 96.7687 10.4846 96.8072 10.5262C96.8456 10.5679 96.8832 10.6105 96.92 10.6539C96.9558 10.6974 96.9909 10.7418 97.0251 10.7871C97.0592 10.8323 97.0921 10.8784 97.1237 10.9254C97.1562 10.9724 97.187 11.02 97.216 11.0685C97.2459 11.117 97.2745 11.1662 97.3019 11.2161C97.3292 11.266 97.3553 11.3166 97.38 11.3678C97.4048 11.419 97.4283 11.4707 97.4505 11.5231C97.4727 11.5755 97.4937 11.6284 97.5133 11.6818C97.533 11.7353 97.5513 11.7892 97.5684 11.8435C97.5855 11.8979 97.6009 11.9527 97.6146 12.0078C97.6291 12.063 97.6423 12.1185 97.6543 12.1742C97.8452 13.0831 97.6953 14.0791 97.1929 14.8613C96.6893 15.6453 95.9037 16.1185 95.0143 16.299C94.9989 16.3093 94.9848 16.3214 94.9682 16.3296C94.6055 16.5101 93.8442 16.4164 93.4572 16.3112C92.5678 16.0694 91.7771 15.4132 91.3311 14.5994C91.3038 14.5491 91.2777 14.4982 91.2529 14.4466C91.2282 14.395 91.2042 14.3429 91.1812 14.2902C91.159 14.2373 91.138 14.1841 91.1184 14.1303C91.0987 14.0764 91.0804 14.0221 91.0633 13.9674C91.0462 13.9127 91.0304 13.8575 91.0159 13.8019C91.0013 13.7464 90.9881 13.6906 90.9761 13.6344C90.9642 13.5782 90.9539 13.5217 90.9454 13.465C90.936 13.4083 90.9283 13.3513 90.9223 13.2942C90.9155 13.2371 90.9103 13.1799 90.9069 13.1225C90.9035 13.0651 90.9018 13.0077 90.9018 12.9503C90.9009 12.8929 90.9014 12.8354 90.9031 12.7779C90.9056 12.7205 90.9091 12.6632 90.9133 12.6059C90.9184 12.5487 90.9249 12.4916 90.9326 12.4347C90.9402 12.3778 90.9492 12.3211 90.9595 12.2647C90.9706 12.2081 90.9825 12.1519 90.9953 12.0961C91.0082 12.0402 91.0227 11.9847 91.0389 11.9295C91.3875 10.7377 92.2308 10.0803 93.2586 9.52069Z" fill="#405A51"/>
<path d="M3.36305 25.0221C4.19183 24.9185 4.96563 24.9731 5.71496 25.3813C5.76331 25.4078 5.81099 25.4355 5.85798 25.4644C5.90497 25.4933 5.95123 25.5233 5.99677 25.5546C6.0423 25.5858 6.08703 25.6182 6.13095 25.6517C6.17486 25.6851 6.21796 25.7197 6.26025 25.7553C6.30255 25.791 6.34394 25.8277 6.38444 25.8654C6.42485 25.9031 6.46436 25.9418 6.50298 25.9816C6.5416 26.0213 6.57919 26.062 6.61576 26.1036C6.65241 26.1452 6.688 26.1877 6.72251 26.2311C6.75703 26.2746 6.79048 26.3188 6.82286 26.3639C6.85524 26.409 6.88651 26.4549 6.91667 26.5015C6.94683 26.5482 6.97583 26.5957 7.00369 26.6438C7.03154 26.6919 7.05819 26.7407 7.08365 26.7901C7.10911 26.8396 7.13333 26.8897 7.15632 26.9403C7.17938 26.9911 7.20117 27.0423 7.22168 27.0941C7.24218 27.1459 7.26145 27.1982 7.27947 27.251C7.29741 27.3037 7.31408 27.3569 7.32945 27.4105C7.34629 27.4673 7.36171 27.5245 7.37572 27.5821C7.38973 27.6397 7.40233 27.6976 7.41353 27.7558C7.4248 27.814 7.43458 27.8724 7.44287 27.9311C7.45124 27.9899 7.45817 28.0488 7.46363 28.1078C7.46919 28.1669 7.47325 28.2261 7.47581 28.2853C7.47846 28.3445 7.47961 28.4038 7.47927 28.4632C7.47901 28.5225 7.4773 28.5818 7.47414 28.641C7.47098 28.7003 7.46637 28.7594 7.4603 28.8183C7.45424 28.8773 7.44672 28.9361 7.43775 28.9948C7.42886 29.0534 7.41852 29.1118 7.40673 29.1699C7.39494 29.228 7.38174 29.2858 7.36713 29.3432C7.35261 29.4006 7.33663 29.4576 7.3192 29.5143C7.30186 29.5709 7.28315 29.6271 7.26307 29.6828C7.24291 29.7384 7.22146 29.7936 7.19873 29.8482C7.17592 29.9029 7.15179 29.9569 7.12633 30.0102C7.10096 30.0636 7.07426 30.1163 7.04623 30.1684C6.54873 31.0816 5.72277 31.6094 4.75905 31.8998C3.94154 31.9751 3.25117 31.9433 2.50967 31.5518C2.45798 31.5245 2.40697 31.496 2.35665 31.4662C2.30641 31.4363 2.2569 31.4051 2.20812 31.3727C2.15942 31.3404 2.11149 31.3068 2.06433 31.272C2.01725 31.2373 1.97103 31.2013 1.92566 31.1641C1.88038 31.1269 1.836 31.0887 1.79251 31.0493C1.74911 31.0099 1.70669 30.9694 1.66525 30.9278C1.62373 30.8862 1.58332 30.8437 1.54402 30.8001C1.50463 30.7565 1.46635 30.7119 1.42919 30.6662C1.39202 30.6206 1.35601 30.5742 1.32116 30.5268C1.28621 30.4794 1.25251 30.4311 1.22004 30.3821C1.18749 30.3329 1.15622 30.283 1.12623 30.2324C1.09616 30.1816 1.06737 30.1302 1.03986 30.078C1.01234 30.0258 0.986114 29.973 0.961166 29.9195C0.936219 29.866 0.912598 29.8119 0.890299 29.7572C0.868086 29.7024 0.847194 29.6472 0.827629 29.5915C0.808064 29.5358 0.789911 29.4795 0.773165 29.4228C0.756847 29.3675 0.741894 29.3118 0.72831 29.2558C0.714726 29.1996 0.702507 29.1432 0.691656 29.0865C0.680806 29.0299 0.671324 28.973 0.663208 28.9158C0.655177 28.8587 0.648468 28.8013 0.643086 28.7438C0.637789 28.6863 0.633857 28.6287 0.631294 28.571C0.628816 28.5133 0.62771 28.4555 0.627966 28.3979C0.628222 28.3401 0.629884 28.2824 0.63296 28.2247C0.636036 28.167 0.640479 28.1095 0.646289 28.0521C0.652184 27.9946 0.659448 27.9374 0.668077 27.8802C0.676706 27.8231 0.686703 27.7663 0.698066 27.7098C0.709429 27.6532 0.722156 27.597 0.736253 27.541C0.75035 27.4851 0.765818 27.4295 0.782649 27.3744C0.799395 27.3191 0.817505 27.2644 0.836985 27.2102C0.856464 27.1559 0.877224 27.1021 0.899267 27.0489C0.92131 26.9957 0.944637 26.9431 0.969242 26.8911C0.993848 26.839 1.01969 26.7875 1.04677 26.7368C1.57054 25.7752 2.36139 25.3276 3.36305 25.0221Z" fill="#405A51"/>
<path d="M34.6927 0.046497C35.4861 -0.0388489 36.2417 -0.0303776 36.9895 0.276477C37.0456 0.299062 37.101 0.323037 37.1559 0.348402C37.2108 0.373767 37.265 0.400522 37.3185 0.428666C37.3721 0.456811 37.4249 0.4863 37.477 0.517137C37.5291 0.547975 37.5805 0.580118 37.6309 0.613561C37.6814 0.647005 37.7311 0.681705 37.7799 0.717668C37.8286 0.753717 37.8765 0.790943 37.9235 0.829338C37.9705 0.867732 38.0165 0.907342 38.0616 0.948169C38.1066 0.988909 38.1505 1.03078 38.1934 1.07378C38.2364 1.11677 38.2783 1.16086 38.319 1.20603C38.3598 1.25111 38.3995 1.29724 38.4379 1.34441C38.4765 1.39157 38.5138 1.4397 38.5499 1.48878C38.5861 1.53786 38.621 1.58781 38.6547 1.63863C38.6883 1.68944 38.7207 1.74113 38.7518 1.79368C38.7829 1.84615 38.8127 1.8994 38.8412 1.95343C38.8697 2.00746 38.8968 2.06214 38.9226 2.11747C38.9484 2.17289 38.9729 2.22892 38.9959 2.28556C39.3739 3.24065 39.3536 4.39497 38.9381 5.33404C38.4429 6.45344 37.5384 7.06962 36.443 7.48749C35.7409 7.60724 35.0249 7.57896 34.3549 7.32801C34.2959 7.30577 34.2374 7.2821 34.1796 7.25699C34.1218 7.2318 34.0646 7.20517 34.008 7.17712C33.9514 7.14897 33.8956 7.11948 33.8405 7.08865C33.7854 7.05772 33.7311 7.02541 33.6776 6.9917C33.624 6.95808 33.5714 6.92308 33.5196 6.88668C33.4678 6.85037 33.4169 6.81276 33.367 6.77384C33.3171 6.73493 33.2681 6.69475 33.2201 6.65332C33.1722 6.61188 33.1253 6.56927 33.0794 6.52549C33.0334 6.48171 32.9886 6.4368 32.9449 6.39076C32.9013 6.34472 32.8588 6.29755 32.8174 6.24926C32.7761 6.20105 32.7359 6.15184 32.697 6.10163C32.658 6.05133 32.6203 6.00013 32.5839 5.94801C32.5475 5.8958 32.5123 5.84272 32.4785 5.78878C32.4447 5.73484 32.4123 5.68003 32.3811 5.62434C32.35 5.56875 32.3202 5.51242 32.2919 5.45535C32.2635 5.39819 32.2366 5.34038 32.211 5.28192C32.1855 5.22311 32.1615 5.16365 32.139 5.10354C32.1164 5.04351 32.0954 4.98292 32.0759 4.92177C32.0564 4.86062 32.0385 4.79903 32.022 4.73701C32.0055 4.67498 31.9906 4.61253 31.9773 4.54963C31.9639 4.48683 31.9521 4.42373 31.9419 4.36031C31.9317 4.2969 31.9231 4.23323 31.916 4.16929C31.9089 4.10545 31.9034 4.04147 31.8996 3.97736C31.8957 3.91317 31.8935 3.84893 31.8928 3.78465C31.8921 3.72037 31.893 3.65613 31.8955 3.59194C31.898 3.52774 31.9021 3.46364 31.9078 3.39962C31.9134 3.3356 31.9207 3.27175 31.9296 3.20808C31.9385 3.1444 31.9489 3.08104 31.9609 3.01797C31.9729 2.95482 31.9865 2.89206 32.0016 2.82969C32.0167 2.76732 32.0334 2.70534 32.0516 2.64375C32.0698 2.58216 32.0895 2.5211 32.1107 2.46055C32.1319 2.4 32.1547 2.34007 32.1788 2.28074C32.6565 1.11469 33.5834 0.508277 34.6927 0.046497Z" fill="#ED7D4E"/>
<path d="M31.8691 9.67773L39.6243 9.70666C39.5376 12.4532 39.5991 15.2233 39.5988 17.9718L39.6145 31.8006C37.0375 31.8776 34.4367 31.8111 31.8574 31.8083L31.8691 9.67773Z" fill="#405A51"/>
<path d="M88.1745 9.52112C88.4872 9.50183 88.805 9.50105 89.1177 9.49219C89.0421 9.86523 88.0079 10.5258 87.7196 10.8923C87.2684 11.4665 87.0519 12.1651 87.1454 12.8987C87.5901 16.4055 93.6749 18.557 96.2175 20.5064C97.5721 21.5452 98.7204 22.9336 98.9498 24.7C99.1331 26.1137 98.8191 27.536 97.9592 28.6733C96.2637 30.9186 93.5404 31.6149 90.9221 31.9465L90.6056 31.9995C90.6812 31.6987 92.3075 30.9332 92.6638 30.4776C92.979 30.0724 93.12 29.5841 93.0508 29.07C92.6471 26.0666 87.0121 23.6467 84.772 21.9634C82.9727 20.612 81.4118 18.9013 81.0888 16.5566C80.8914 15.1141 81.0516 13.5143 81.9462 12.3284C83.4289 10.3626 85.8933 9.80908 88.1745 9.52112Z" fill="#405A51"/>
<path d="M7.44222 9.51244C7.65982 9.47908 7.81361 9.47374 8.02968 9.51974C7.94997 9.88497 6.92703 10.5941 6.64432 10.9844C6.19758 11.6013 6.03533 12.3235 6.15836 13.0786C6.68713 16.324 12.3094 18.4183 14.754 20.1726C16.2388 21.2383 17.5834 22.6018 17.8893 24.502C18.1164 25.9116 17.9016 27.3536 17.0521 28.5149C15.2711 30.9495 12.6124 31.5606 9.84487 31.9747C9.72825 31.9924 9.58792 31.9622 9.46976 31.951L9.72966 31.9601L9.50052 31.918C9.59638 31.8766 9.68839 31.8285 9.78118 31.7803C10.971 31.1623 11.7022 30.679 12.1283 29.3436C11.3125 25.6149 5.98676 23.7717 3.27077 21.5755C1.59975 20.2243 0.274757 18.5893 0.0410018 16.3499C-0.109452 14.9094 0.136734 13.2852 1.07022 12.1428C2.61269 10.255 5.15772 9.71011 7.44222 9.51244Z" fill="#405A51"/>
<path d="M20.5614 1.33594L28.3526 1.33789L28.3353 31.819L20.5234 31.8089L20.5614 1.33594Z" fill="#405A51"/>
<path d="M64.6237 14.6092C64.8217 14.1047 65.0263 13.6016 65.2748 13.1203C66.1575 11.4103 67.6615 10.3381 69.4585 9.79489C69.585 9.75762 69.7122 9.72353 69.8403 9.6926C69.9685 9.66168 70.0974 9.63388 70.2272 9.60921C70.3562 9.58463 70.4861 9.56326 70.6168 9.54511C70.7467 9.52695 70.8774 9.51201 71.0089 9.50028C71.1397 9.48864 71.2708 9.48022 71.4024 9.47501C71.534 9.46979 71.666 9.46784 71.7984 9.46914C71.93 9.47044 72.0615 9.47496 72.1931 9.48269C72.3238 9.49051 72.455 9.50159 72.5865 9.51592C72.7173 9.53017 72.8475 9.54767 72.9774 9.56843C73.1073 9.5891 73.2367 9.61303 73.3657 9.64022C73.4947 9.66732 73.6229 9.6976 73.7502 9.73104C73.8783 9.76457 74.0052 9.80119 74.1308 9.84088C74.2564 9.88058 74.3811 9.92341 74.505 9.96936C74.6281 10.0152 74.7502 10.0641 74.8715 10.1161C74.9937 10.168 75.1138 10.223 75.2317 10.2809C75.3504 10.3388 75.4679 10.3995 75.5841 10.4632C76.9823 11.2363 78.1203 12.524 78.5752 14.0914C78.7764 14.7893 78.8559 15.5187 78.8905 16.2433C79.0251 19.0308 78.8969 21.8678 78.9007 24.6614C78.9033 26.826 79.0609 29.0746 78.9046 31.2294C78.8879 31.4665 78.8508 31.6404 78.7367 31.8507C76.1941 31.8597 73.6515 31.8535 71.1089 31.8323C71.1884 31.6664 71.2614 31.5247 71.2678 31.3349C71.3921 28.2116 71.2653 25.0297 71.2589 21.9018C71.2537 19.4316 71.4959 16.0349 71.0282 13.6629C71.0162 13.6028 71.0017 13.5432 70.9846 13.4842C70.9684 13.4251 70.95 13.3667 70.9295 13.3089C70.909 13.2512 70.8863 13.1943 70.8616 13.1382C70.8376 13.0822 70.8112 13.0271 70.7821 12.9729C70.7539 12.9188 70.7236 12.8657 70.6911 12.8138C70.6595 12.7618 70.6258 12.7112 70.5899 12.6617C70.554 12.6122 70.5164 12.5641 70.4771 12.5174C70.4387 12.4706 70.3981 12.4254 70.3554 12.3816C69.8971 11.8986 69.2928 11.7016 68.6429 11.7C67.6828 11.6978 66.776 12.1283 66.1053 12.817C65.4125 13.5285 65.0436 14.5499 64.8748 15.5205C64.5753 17.243 64.7511 19.2052 64.756 20.952L64.7888 30.7448L64.7939 31.8764C62.2417 31.8984 59.6895 31.8932 57.1374 31.8609C57.0049 27.7618 57.1078 23.63 57.095 19.5258C57.0896 17.8158 57.2311 15.9321 56.9716 14.2423C56.8657 13.5532 56.6501 12.8455 56.1702 12.3263C55.7559 11.8782 55.2136 11.6649 54.613 11.6609C53.6256 11.6541 52.6931 12.1414 52.0097 12.8451C51.2868 13.5893 50.8537 14.5542 50.6814 15.5789C50.4436 16.9914 50.628 19.0336 50.6286 20.4986L50.6312 31.906L42.8709 31.9072C42.7806 24.5312 42.8712 17.1435 42.8768 9.76622L50.6348 9.7657C50.6273 11.2059 50.6412 12.646 50.6764 14.0858C50.9994 13.3217 51.3422 12.6243 51.8706 11.9786C53.1605 10.4023 55.045 9.70667 57.0008 9.51044C57.1754 9.49872 57.3501 9.49264 57.5251 9.4922C57.7001 9.49186 57.8749 9.49716 58.0496 9.5081C58.2243 9.51905 58.3984 9.53568 58.572 9.55801C58.7455 9.58033 58.9182 9.60826 59.0901 9.64179C59.2619 9.67532 59.4325 9.71441 59.6019 9.75906C59.7713 9.80371 59.9391 9.85378 60.1054 9.90929C60.2716 9.96488 60.4358 10.0258 60.5983 10.092C60.7607 10.1582 60.9208 10.2297 61.0787 10.3063C63.0108 11.2505 63.9253 12.6251 64.6237 14.6092Z" fill="#405A51"/>
</svg>
