<svg width="129" height="42" viewBox="0 0 129 42" fill="none" xmlns="http://www.w3.org/2000/svg">
<path d="M110.467 31.9842C111.601 31.9102 112.828 32.2675 113.705 32.996C114.629 33.7641 115.18 34.9203 115.263 36.1128C115.269 36.189 115.273 36.2652 115.275 36.3414C115.276 36.4177 115.276 36.494 115.275 36.5702C115.273 36.6466 115.269 36.7228 115.263 36.7988C115.258 36.875 115.25 36.9509 115.24 37.0266C115.231 37.1023 115.22 37.1777 115.206 37.2529C115.193 37.3281 115.178 37.4029 115.161 37.4773C115.145 37.5517 115.126 37.6256 115.104 37.6991C115.084 37.7725 115.062 37.8455 115.038 37.9178C115.013 37.9902 114.987 38.0619 114.959 38.1331C114.931 38.2041 114.902 38.2744 114.871 38.344C114.84 38.4136 114.806 38.4823 114.77 38.5502C114.736 38.6182 114.7 38.6853 114.662 38.7514C114.624 38.8176 114.585 38.8827 114.543 38.9468C114.502 39.0109 114.459 39.074 114.415 39.136C114.37 39.198 114.324 39.2589 114.276 39.3187C114.228 39.3784 114.179 39.4369 114.129 39.4942C113.246 40.4803 112.159 40.8849 110.865 40.9405C109.975 40.9211 109.191 40.7061 108.437 40.2179C108.374 40.177 108.313 40.1345 108.253 40.0904C108.192 40.0462 108.132 40.0006 108.074 39.9536C108.016 39.9065 107.96 39.858 107.904 39.8082C107.848 39.7582 107.794 39.7069 107.74 39.6544C107.687 39.6017 107.635 39.5478 107.585 39.4925C107.534 39.4373 107.485 39.3808 107.438 39.323C107.39 39.2654 107.344 39.2065 107.299 39.1465C107.255 39.0865 107.211 39.0255 107.169 38.9633C107.128 38.9012 107.088 38.8381 107.049 38.774C107.011 38.7097 106.974 38.6446 106.939 38.5786C106.903 38.5126 106.87 38.4457 106.838 38.378C106.806 38.3105 106.776 38.2421 106.747 38.1728C106.719 38.1036 106.693 38.0337 106.668 37.9632C106.643 37.8927 106.619 37.8215 106.598 37.7498C106.577 37.6781 106.557 37.606 106.54 37.5334C106.522 37.4607 106.506 37.3876 106.491 37.3142C106.477 37.2421 106.464 37.1698 106.453 37.0972C106.442 37.0245 106.433 36.9517 106.426 36.8786C106.418 36.8056 106.413 36.7324 106.409 36.659C106.406 36.5857 106.404 36.5123 106.404 36.4388C106.404 36.3654 106.406 36.2921 106.409 36.2187C106.413 36.1453 106.418 36.0721 106.426 35.9989C106.433 35.9259 106.442 35.853 106.453 35.7803C106.463 35.7078 106.475 35.6355 106.489 35.5634C106.504 35.4914 106.52 35.4198 106.538 35.3485C106.556 35.2773 106.576 35.2065 106.598 35.1363C106.619 35.066 106.642 34.9964 106.666 34.9274C106.691 34.8582 106.718 34.7898 106.747 34.722C106.774 34.6542 106.804 34.5871 106.835 34.5207C106.867 34.4544 106.901 34.3889 106.935 34.3242C106.97 34.2595 107.006 34.1957 107.044 34.1328C107.082 34.0699 107.121 34.008 107.162 33.947C107.976 32.7386 109.079 32.2503 110.467 31.9842Z" fill="#D8EFD5"/>
<path d="M16.1718 12.1579C17.1836 12.0491 18.1062 12.0339 19.0617 12.4345C19.1301 12.463 19.1977 12.4932 19.2645 12.5251C19.3314 12.5571 19.3974 12.5907 19.4625 12.6258C19.5276 12.6611 19.5918 12.698 19.655 12.7364C19.7184 12.7749 19.7807 12.815 19.8419 12.8566C19.9031 12.8981 19.9633 12.9412 20.0224 12.9859C20.0815 13.0305 20.1395 13.0766 20.1963 13.1241C20.253 13.1718 20.3086 13.2208 20.3629 13.2711C20.4172 13.3214 20.4703 13.3731 20.5221 13.4261C20.5737 13.4792 20.624 13.5335 20.673 13.589C20.722 13.6446 20.7695 13.7013 20.8156 13.7592C20.8618 13.8172 20.9065 13.8763 20.9496 13.9364C20.9927 13.9966 21.0344 14.0578 21.0745 14.1201C21.1145 14.1824 21.153 14.2457 21.1899 14.3099C21.2268 14.3742 21.2621 14.4392 21.2957 14.5051C21.3293 14.5712 21.3612 14.638 21.3914 14.7057C21.4217 14.7733 21.4502 14.8416 21.4771 14.9106C21.9076 16.0278 21.886 17.3468 21.3826 18.4371C20.7801 19.742 19.7586 20.4306 18.4551 20.9274C17.5273 21.0502 16.6866 21.0775 15.7942 20.7476C15.7247 20.7213 15.6557 20.6933 15.5875 20.6636C15.5194 20.6338 15.452 20.6025 15.3853 20.5694C15.3186 20.5362 15.2528 20.5015 15.1879 20.4652C15.123 20.4288 15.059 20.3908 14.996 20.3513C14.933 20.3118 14.871 20.2707 14.81 20.2281C14.749 20.1854 14.6891 20.1413 14.6303 20.0956C14.5715 20.05 14.5139 20.003 14.4575 19.9545C14.401 19.906 14.3459 19.8561 14.292 19.8049C14.238 19.7537 14.1853 19.7012 14.134 19.6473C14.0827 19.5934 14.0327 19.5383 13.9841 19.482C13.9355 19.4256 13.8884 19.3681 13.8426 19.3094C13.7969 19.2507 13.7526 19.1908 13.7099 19.1299C13.6671 19.069 13.6259 19.0071 13.5863 18.9442C13.5466 18.8812 13.5085 18.8173 13.4721 18.7525C13.4356 18.6876 13.4007 18.6219 13.3675 18.5553C13.3343 18.4887 13.3027 18.4214 13.2729 18.3533C13.2421 18.2838 13.2132 18.2137 13.186 18.1429C13.1589 18.0719 13.1335 18.0004 13.11 17.9283C13.0864 17.8561 13.0647 17.7834 13.0449 17.7102C13.025 17.6369 13.007 17.5632 12.9908 17.4891C12.9746 17.4148 12.9602 17.3403 12.9479 17.2655C12.9354 17.1906 12.9248 17.1154 12.9162 17.0401C12.9076 16.9646 12.9009 16.889 12.896 16.8133C12.8912 16.7375 12.8882 16.6617 12.8871 16.5858C12.8861 16.5099 12.8871 16.434 12.8899 16.3581C12.8927 16.2823 12.8974 16.2065 12.904 16.131C12.9107 16.0554 12.9192 15.9799 12.9295 15.9047C12.94 15.8295 12.9523 15.7547 12.9664 15.6801C12.9806 15.6055 12.9966 15.5314 13.0145 15.4577C13.0324 15.3838 13.0523 15.3105 13.074 15.2377C13.0956 15.165 13.1189 15.0929 13.1441 15.0213C13.1694 14.9497 13.1964 14.8788 13.2253 14.8086C13.7813 13.4793 14.8713 12.6804 16.1718 12.1579Z" fill="#D8EFD5"/>
<path d="M121.519 12.2026C122.858 11.975 124.134 12.0356 125.303 12.7914C125.364 12.8309 125.425 12.8719 125.485 12.9144C125.544 12.9569 125.602 13.0008 125.66 13.0462C125.717 13.0916 125.773 13.1384 125.829 13.1865C125.883 13.2347 125.937 13.2842 125.989 13.3351C126.041 13.3859 126.093 13.4379 126.143 13.4912C126.193 13.5447 126.242 13.5992 126.29 13.6549C126.336 13.7107 126.382 13.7675 126.427 13.8255C126.471 13.8835 126.514 13.9427 126.555 14.0029C126.598 14.063 126.638 14.1241 126.675 14.1862C126.714 14.2484 126.752 14.3114 126.787 14.3754C126.823 14.4393 126.857 14.5041 126.889 14.5698C126.921 14.6354 126.952 14.7017 126.981 14.7689C127.01 14.836 127.037 14.9038 127.063 14.9723C127.088 15.0407 127.112 15.1098 127.135 15.1795C127.157 15.2492 127.177 15.3194 127.195 15.3901C127.214 15.4608 127.231 15.5318 127.247 15.6033C127.495 16.7681 127.3 18.0445 126.645 19.047C125.989 20.0518 124.965 20.6583 123.807 20.8896C123.786 20.9027 123.768 20.9183 123.746 20.9288C123.274 21.1601 122.282 21.04 121.778 20.9053C120.619 20.5953 119.588 19.7544 119.007 18.7113C118.972 18.6469 118.938 18.5816 118.905 18.5156C118.873 18.4495 118.842 18.3826 118.812 18.3151C118.783 18.2474 118.756 18.1791 118.73 18.1102C118.704 18.0411 118.68 17.9716 118.658 17.9014C118.636 17.8313 118.615 17.7606 118.596 17.6894C118.578 17.6182 118.56 17.5466 118.545 17.4746C118.529 17.4026 118.516 17.3302 118.505 17.2575C118.492 17.1848 118.482 17.1119 118.475 17.0386C118.466 16.9655 118.459 16.8921 118.455 16.8187C118.45 16.7451 118.448 16.6715 118.448 16.5979C118.447 16.5243 118.447 16.4507 118.449 16.377C118.453 16.3034 118.457 16.2299 118.463 16.1566C118.47 16.0832 118.478 16.01 118.488 15.9371C118.498 15.8642 118.51 15.7916 118.523 15.7192C118.537 15.6467 118.553 15.5747 118.57 15.5031C118.586 15.4315 118.605 15.3604 118.627 15.2897C119.081 13.7623 120.18 12.9198 121.519 12.2026Z" fill="#D8EFD5"/>
<path d="M4.38133 32.0701C5.46125 31.9373 6.46954 32.0073 7.44593 32.5304C7.50894 32.5644 7.57106 32.5999 7.63229 32.637C7.69352 32.6739 7.7538 32.7125 7.81314 32.7525C7.87248 32.7925 7.93076 32.834 7.98798 32.877C8.0452 32.9198 8.10137 32.9641 8.15647 33.0097C8.21158 33.0555 8.26552 33.1025 8.31829 33.1508C8.37095 33.1991 8.42243 33.2488 8.47275 33.2998C8.52307 33.3506 8.57206 33.4028 8.61971 33.4561C8.66746 33.5094 8.71383 33.5639 8.75881 33.6196C8.80378 33.6752 8.84737 33.7319 8.88956 33.7897C8.93175 33.8475 8.9725 33.9063 9.0118 33.9661C9.0511 34.026 9.08889 34.0867 9.12519 34.1484C9.16148 34.2101 9.19621 34.2726 9.22939 34.3359C9.26256 34.3994 9.29412 34.4636 9.32407 34.5285C9.35413 34.5935 9.38251 34.6592 9.40923 34.7255C9.43595 34.7919 9.46105 34.8589 9.48454 34.9266C9.50792 34.9942 9.52963 35.0623 9.54967 35.131C9.5716 35.2038 9.5917 35.2771 9.60995 35.3509C9.62821 35.4247 9.64464 35.4989 9.65922 35.5735C9.67391 35.6481 9.68666 35.723 9.69746 35.7983C9.70837 35.8735 9.71739 35.949 9.72451 36.0247C9.73175 36.1004 9.73703 36.1762 9.74038 36.2522C9.74383 36.3281 9.74533 36.4041 9.74489 36.4801C9.74455 36.5561 9.74232 36.6321 9.7382 36.708C9.73409 36.784 9.72807 36.8597 9.72017 36.9353C9.71227 37.0109 9.70247 37.0863 9.69078 37.1614C9.6792 37.2366 9.66573 37.3114 9.65037 37.3858C9.635 37.4603 9.61781 37.5344 9.59877 37.6079C9.57984 37.6815 9.55902 37.7546 9.53631 37.8272C9.51371 37.8998 9.48933 37.9718 9.46317 38.0431C9.4369 38.1145 9.40895 38.1852 9.37934 38.2552C9.34962 38.3252 9.31817 38.3944 9.285 38.4628C9.25193 38.5312 9.21714 38.5988 9.18063 38.6655C8.53237 39.8359 7.45612 40.5122 6.20035 40.8845C5.13512 40.981 4.23555 40.9402 3.26934 40.4384C3.20199 40.4035 3.13553 40.3669 3.06996 40.3287C3.0045 40.2904 2.93998 40.2505 2.87642 40.209C2.81296 40.1676 2.7505 40.1245 2.68905 40.0799C2.62771 40.0354 2.56748 39.9893 2.50837 39.9416C2.44936 39.894 2.39153 39.8449 2.33486 39.7945C2.27831 39.744 2.22304 39.692 2.16905 39.6387C2.11494 39.5855 2.06228 39.531 2.01107 39.4751C1.95975 39.4192 1.90988 39.362 1.86145 39.3036C1.81302 39.2451 1.7661 39.1856 1.72068 39.1249C1.67515 39.0641 1.63123 39.0023 1.58892 38.9394C1.54651 38.8764 1.50576 38.8124 1.46669 38.7475C1.4275 38.6825 1.38998 38.6165 1.35413 38.5496C1.31829 38.4828 1.28411 38.4151 1.2516 38.3465C1.21909 38.278 1.18831 38.2086 1.15926 38.1385C1.13031 38.0683 1.10309 37.9976 1.0776 37.9262C1.0521 37.8548 1.02845 37.7827 1.00663 37.71C0.985365 37.6391 0.965882 37.5677 0.948181 37.4959C0.93048 37.424 0.914559 37.3517 0.90042 37.279C0.886282 37.2064 0.873927 37.1335 0.863351 37.0602C0.852886 36.987 0.844145 36.9135 0.837132 36.8398C0.830229 36.7661 0.825107 36.6923 0.821767 36.6184C0.818538 36.5443 0.817096 36.4704 0.81743 36.3964C0.817764 36.3224 0.81993 36.2484 0.823938 36.1745C0.827945 36.1006 0.833735 36.0268 0.841305 35.9532C0.848987 35.8797 0.858452 35.8062 0.869696 35.733C0.88094 35.6598 0.893967 35.587 0.908773 35.5146C0.923579 35.4421 0.940163 35.37 0.958532 35.2983C0.976901 35.2266 0.997056 35.1554 1.01899 35.0847C1.04081 35.0139 1.06441 34.9438 1.08979 34.8743C1.11517 34.8047 1.14222 34.7358 1.17094 34.6676C1.19967 34.5995 1.23006 34.532 1.26212 34.4654C1.29419 34.3986 1.32786 34.3327 1.36315 34.2676C2.04564 33.0353 3.07613 32.4616 4.38133 32.0701Z" fill="#D8EFD5"/>
<path d="M45.2053 0.0595901C46.2392 -0.0497884 47.2237 -0.0389316 48.1981 0.35433C48.2711 0.383275 48.3434 0.414001 48.4149 0.446509C48.4865 0.479016 48.5571 0.513304 48.6268 0.549374C48.6966 0.585444 48.7654 0.623237 48.8334 0.662758C48.9013 0.702279 48.9681 0.743474 49.0339 0.786334C49.0997 0.829195 49.1644 0.873667 49.2279 0.919756C49.2915 0.965957 49.3539 1.01366 49.4151 1.06287C49.4764 1.11208 49.5363 1.16284 49.595 1.21516C49.6537 1.26738 49.7109 1.32103 49.7668 1.37614C49.8228 1.43125 49.8774 1.48775 49.9305 1.54564C49.9837 1.60342 50.0353 1.66253 50.0854 1.72298C50.1356 1.78343 50.1843 1.8451 50.2314 1.908C50.2785 1.9709 50.324 2.03492 50.3678 2.10005C50.4117 2.16517 50.4539 2.23141 50.4944 2.29876C50.5349 2.36601 50.5738 2.43425 50.611 2.50349C50.648 2.57274 50.6834 2.64282 50.717 2.71373C50.7506 2.78476 50.7825 2.85657 50.8125 2.92915C51.305 4.15319 51.2786 5.63255 50.7372 6.83605C50.092 8.27066 48.9133 9.06036 47.4859 9.5959C46.5711 9.74936 45.6382 9.71312 44.7651 9.3915C44.6882 9.363 44.6121 9.33266 44.5367 9.30049C44.4613 9.2682 44.3868 9.23408 44.3131 9.19812C44.2394 9.16205 44.1667 9.12426 44.0948 9.08474C44.023 9.04511 43.9523 9.00369 43.8826 8.96049C43.8128 8.91741 43.7442 8.87255 43.6767 8.8259C43.6092 8.77937 43.5429 8.73116 43.4778 8.68129C43.4128 8.63141 43.349 8.57993 43.2864 8.52682C43.224 8.47372 43.1629 8.41911 43.1031 8.363C43.0432 8.3069 42.9848 8.24934 42.9279 8.19034C42.871 8.13133 42.8156 8.07088 42.7618 8.00899C42.7079 7.9472 42.6556 7.88413 42.6048 7.81979C42.554 7.75533 42.5049 7.6897 42.4575 7.62291C42.41 7.556 42.3642 7.48798 42.3201 7.41884C42.2761 7.34971 42.2338 7.27946 42.1932 7.2081C42.1526 7.13685 42.1139 7.06466 42.0769 6.99152C42.04 6.91826 42.0048 6.84418 41.9716 6.76926C41.9384 6.69389 41.9071 6.61768 41.8777 6.54064C41.8483 6.46372 41.8209 6.38607 41.7956 6.30769C41.7702 6.22932 41.7467 6.15039 41.7253 6.0709C41.7038 5.99141 41.6843 5.91137 41.667 5.83077C41.6496 5.75028 41.6342 5.6694 41.6209 5.58813C41.6076 5.50687 41.5964 5.42526 41.5871 5.34333C41.5779 5.2615 41.5708 5.17951 41.5658 5.09735C41.5608 5.01508 41.5578 4.93275 41.5569 4.85037C41.556 4.76799 41.5572 4.68566 41.5604 4.60339C41.5637 4.52112 41.569 4.43896 41.5765 4.35691C41.5838 4.27487 41.5933 4.19304 41.6049 4.11144C41.6164 4.02984 41.63 3.94863 41.6456 3.8678C41.6613 3.78687 41.679 3.70643 41.6987 3.6265C41.7184 3.54657 41.7401 3.46714 41.7638 3.38821C41.7875 3.30927 41.8132 3.23101 41.8408 3.15342C41.8685 3.07582 41.8981 2.99901 41.9297 2.92297C42.552 1.42858 43.7599 0.651403 45.2053 0.0595901Z" fill="#ED7D4E"/>
<path d="M41.5269 12.4043L51.6321 12.4414C51.5193 15.9614 51.5994 19.5114 51.5989 23.0339L51.6195 40.7567C48.2615 40.8554 44.8726 40.7702 41.5117 40.7666L41.5269 12.4043Z" fill="#D8EFD5"/>
<path d="M114.894 12.2031C115.302 12.1784 115.716 12.1774 116.123 12.166C116.025 12.6441 114.677 13.4907 114.301 13.9603C113.714 14.6962 113.431 15.5917 113.553 16.5318C114.133 21.026 122.061 23.7833 125.375 26.2817C127.14 27.6131 128.636 29.3924 128.935 31.6563C129.174 33.4679 128.764 35.2908 127.644 36.7483C125.435 39.6259 121.886 40.5183 118.475 40.9432L118.062 41.0112C118.161 40.6256 120.28 39.6446 120.744 39.0608C121.155 38.5414 121.338 37.9156 121.248 37.2568C120.722 33.4077 113.38 30.3063 110.461 28.149C108.116 26.4171 106.082 24.2247 105.661 21.2197C105.404 19.371 105.613 17.3207 106.779 15.8009C108.711 13.2815 111.922 12.5721 114.894 12.2031Z" fill="#D8EFD5"/>
<path d="M9.69743 12.1917C9.98098 12.1489 10.1814 12.1421 10.4629 12.201C10.3591 12.6691 9.02614 13.5779 8.65776 14.0782C8.07563 14.8687 7.86422 15.7943 8.02453 16.762C8.71353 20.9212 16.0395 23.6053 19.2249 25.8536C21.1596 27.2194 22.9117 28.9668 23.3103 31.4022C23.6062 33.2087 23.3263 35.0568 22.2193 36.545C19.8987 39.6652 16.4343 40.4484 12.8282 40.9791C12.6762 41.0018 12.4934 40.9631 12.3394 40.9487L12.678 40.9604L12.3795 40.9064C12.5044 40.8533 12.6243 40.7917 12.7452 40.7299C14.2955 39.9379 15.2484 39.3185 15.8036 37.607C14.7405 32.8285 7.80093 30.4662 4.26191 27.6516C2.08453 25.9199 0.358016 23.8245 0.0534266 20.9545C-0.14262 19.1084 0.178169 17.0269 1.39452 15.5627C3.40442 13.1433 6.72067 12.445 9.69743 12.1917Z" fill="#D8EFD5"/>
<path d="M26.7916 1.71289L36.9438 1.71539L36.9212 40.7797L26.7422 40.7667L26.7916 1.71289Z" fill="#D8EFD5"/>
<path d="M84.2071 18.7227C84.4651 18.0761 84.7316 17.4314 85.0554 16.8145C86.2056 14.6231 88.1654 13.2489 90.5069 12.5527C90.6717 12.505 90.8375 12.4613 91.0044 12.4217C91.1714 12.382 91.3394 12.3464 91.5085 12.3148C91.6766 12.2833 91.8459 12.2559 92.0162 12.2326C92.1854 12.2094 92.3557 12.1902 92.5272 12.1752C92.6975 12.1603 92.8684 12.1495 93.0399 12.1428C93.2113 12.1361 93.3833 12.1336 93.5558 12.1353C93.7273 12.1369 93.8987 12.1427 94.0702 12.1526C94.2405 12.1627 94.4114 12.1768 94.5828 12.1952C94.7532 12.2135 94.9229 12.2359 95.0922 12.2625C95.2614 12.289 95.43 12.3197 95.5981 12.3545C95.7662 12.3893 95.9332 12.4281 96.0991 12.4709C96.2661 12.5139 96.4314 12.5608 96.5951 12.6117C96.7587 12.6626 96.9213 12.7174 97.0827 12.7763C97.243 12.8351 97.4022 12.8978 97.5603 12.9644C97.7195 13.0309 97.8759 13.1014 98.0295 13.1756C98.1842 13.2498 98.3373 13.3276 98.4887 13.4092C100.311 14.4 101.793 16.0503 102.386 18.0591C102.648 18.9535 102.752 19.8883 102.797 20.8169C102.972 24.3893 102.805 28.0252 102.81 31.6055C102.814 34.3797 103.019 37.2614 102.815 40.0229C102.794 40.3269 102.745 40.5498 102.597 40.8193C99.2836 40.8308 95.9705 40.8229 92.6574 40.7956C92.761 40.583 92.8562 40.4015 92.8645 40.1582C93.0265 36.1555 92.8612 32.0776 92.8528 28.0688C92.8461 24.903 93.1617 20.5499 92.5522 17.51C92.5366 17.433 92.5177 17.3566 92.4955 17.2809C92.4743 17.2052 92.4504 17.1303 92.4237 17.0563C92.3969 16.9824 92.3674 16.9095 92.3351 16.8375C92.304 16.7657 92.2695 16.6951 92.2316 16.6256C92.1949 16.5563 92.1554 16.4883 92.1131 16.4217C92.0719 16.3552 92.0279 16.2902 91.9811 16.2269C91.9344 16.1634 91.8854 16.1017 91.8342 16.0418C91.7841 15.9819 91.7312 15.9239 91.6755 15.8678C91.0784 15.2488 90.291 14.9963 89.4442 14.9943C88.1931 14.9915 87.0115 15.5432 86.1376 16.4259C85.2349 17.3377 84.7541 18.6467 84.5342 19.8906C84.144 22.0982 84.3731 24.6129 84.3794 26.8516L84.4222 39.4019L84.4288 40.8522C81.1032 40.8804 77.7776 40.8738 74.4522 40.8323C74.2795 35.579 74.4136 30.2837 74.3969 25.0237C74.3899 22.8323 74.5743 20.4181 74.2361 18.2524C74.0982 17.3694 73.8171 16.4623 73.1919 15.797C72.652 15.2227 71.9453 14.9494 71.1628 14.9442C69.8762 14.9355 68.6611 15.5601 67.7706 16.4618C66.8286 17.4157 66.2643 18.6522 66.0397 19.9654C65.73 21.7758 65.9703 24.393 65.9709 26.2705L65.9744 40.8901L55.8625 40.8916C55.7448 31.4386 55.8629 21.9706 55.8702 12.516L65.9791 12.5153C65.9693 14.3611 65.9873 16.2067 66.0332 18.0519C66.4542 17.0727 66.9009 16.1789 67.5894 15.3513C69.2701 13.3312 71.7257 12.4397 74.2742 12.1882C74.5016 12.1732 74.7293 12.1654 74.9573 12.1648C75.1853 12.1644 75.4132 12.1712 75.6408 12.1852C75.8684 12.1992 76.0953 12.2205 76.3215 12.2492C76.5476 12.2778 76.7726 12.3136 76.9966 12.3565C77.2205 12.3995 77.4428 12.4496 77.6634 12.5068C77.8842 12.564 78.1029 12.6282 78.3195 12.6994C78.536 12.7706 78.7501 12.8486 78.9618 12.9335C79.1734 13.0184 79.3821 13.11 79.5878 13.2082C82.1053 14.4182 83.297 16.1799 84.2071 18.7227Z" fill="#D8EFD5"/>
</svg>
